<svg width="60" height="61" viewBox="0 0 60 61" fill="none" xmlns="http://www.w3.org/2000/svg">
<path d="M52.3645 24.8855C52.4561 24.2228 52.5 23.5489 52.5 22.875C52.5 14.4681 45.7727 7.625 37.5 7.625C32.7026 7.625 28.2971 9.92966 25.5066 13.7087C24.5215 13.4666 23.5181 13.3438 22.5 13.3438C15.2637 13.3438 9.375 19.3306 9.375 26.6875C9.375 26.8737 9.37863 27.0561 9.38602 27.2385C3.96246 28.8767 0 33.9924 0 40.0312C0 47.3882 5.88867 53.375 13.125 53.375H45C53.2727 53.375 60 46.5356 60 38.125C60 32.5664 56.9934 27.5439 52.3645 24.8855ZM45 49.5625H13.125C7.94672 49.5625 3.75 45.2957 3.75 40.0312C3.75 34.7668 7.94684 30.5 13.125 30.5C13.4107 30.5 13.6816 30.5596 13.96 30.5857C13.4326 29.3943 13.125 28.08 13.125 26.6875C13.125 21.4229 17.3218 17.1562 22.5 17.1562C24.192 17.1562 25.7593 17.6477 27.1289 18.4445C28.8281 14.3267 32.8308 11.4375 37.5 11.4375C43.7146 11.4375 48.75 16.5569 48.75 22.875C48.75 24.3792 48.446 25.8088 47.9261 27.1269C52.7125 28.4448 56.25 32.8456 56.25 38.125C56.25 44.4431 51.2146 49.5625 45 49.5625Z" fill="white"/>
<path d="M33.75 22.875H26.25V34.3125H18.75L30 45.75L41.25 34.3125H33.75V22.875Z" fill="white"/>
</svg>
