<svg width="15" height="15" viewBox="0 0 15 15" fill="none" xmlns="http://www.w3.org/2000/svg">
<path d="M7.49815 3.62495C5.36886 3.62495 3.65137 5.32827 3.65137 7.43999C3.65137 9.55171 5.36886 11.255 7.49815 11.255C9.62744 11.255 11.3449 9.55171 11.3449 7.43999C11.3449 5.32827 9.62744 3.62495 7.49815 3.62495ZM7.49815 9.92026C6.12215 9.92026 4.99724 8.80796 4.99724 7.43999C4.99724 6.07202 6.1188 4.95972 7.49815 4.95972C8.8775 4.95972 9.99906 6.07202 9.99906 7.43999C9.99906 8.80796 8.87415 9.92026 7.49815 9.92026ZM12.3995 3.4689C12.3995 3.96362 11.9978 4.35874 11.5023 4.35874C11.0034 4.35874 10.605 3.9603 10.605 3.4689C10.605 2.97749 11.0068 2.57905 11.5023 2.57905C11.9978 2.57905 12.3995 2.97749 12.3995 3.4689ZM14.9473 4.37202C14.8904 3.18003 14.6159 2.12417 13.7354 1.25425C12.8582 0.384326 11.7935 0.112061 10.5916 0.0522949C9.35291 -0.0174316 5.64005 -0.0174316 4.40131 0.0522949C3.20275 0.10874 2.13811 0.381006 1.2576 1.25093C0.377095 2.12085 0.105913 3.17671 0.0456499 4.3687C-0.0246567 5.59722 -0.0246567 9.27944 0.0456499 10.508C0.102565 11.7 0.377095 12.7558 1.2576 13.6257C2.13811 14.4957 3.1994 14.7679 4.40131 14.8277C5.64005 14.8974 9.35291 14.8974 10.5916 14.8277C11.7935 14.7712 12.8582 14.499 13.7354 13.6257C14.6125 12.7558 14.887 11.7 14.9473 10.508C15.0176 9.27944 15.0176 5.60054 14.9473 4.37202ZM13.347 11.8261C13.0859 12.4769 12.5803 12.9783 11.9208 13.2406C10.9331 13.6291 8.58958 13.5394 7.49815 13.5394C6.40672 13.5394 4.05982 13.6257 3.07553 13.2406C2.41933 12.9816 1.9138 12.4802 1.64931 11.8261C1.2576 10.8466 1.348 8.52241 1.348 7.43999C1.348 6.35757 1.26095 4.03003 1.64931 3.05386C1.91045 2.40308 2.41599 1.90171 3.07553 1.6394C4.06317 1.25093 6.40672 1.34058 7.49815 1.34058C8.58958 1.34058 10.9365 1.25425 11.9208 1.6394C12.577 1.89839 13.0825 2.39976 13.347 3.05386C13.7387 4.03335 13.6483 6.35757 13.6483 7.43999C13.6483 8.52241 13.7387 10.85 13.347 11.8261Z" fill="white"/>
</svg>
