<svg xmlns="http://www.w3.org/2000/svg" xmlns:xlink="http://www.w3.org/1999/xlink" zoomAndPan="magnify" preserveAspectRatio="xMidYMid meet" version="1.0" viewBox="60.17 133.64 254.34 123.32"><defs><g/><clipPath id="fab92df61d"><path d="M 149.464844 133.644531 L 314.511719 133.644531 L 314.511719 145 L 149.464844 145 Z M 149.464844 133.644531 " clip-rule="nonzero"/></clipPath><clipPath id="96b6cc41e1"><path d="M 60.488281 229.25 L 230.488281 229.25 L 230.488281 240.605469 L 60.488281 240.605469 Z M 60.488281 229.25 " clip-rule="nonzero"/></clipPath><clipPath id="c3e4a645e7"><path d="M 279.367188 229.25 L 314.511719 229.25 L 314.511719 240.605469 L 279.367188 240.605469 Z M 279.367188 229.25 " clip-rule="nonzero"/></clipPath><clipPath id="e5c37447c4"><path d="M 60.167969 134 L 100.667969 134 L 100.667969 228 L 60.167969 228 Z M 60.167969 134 " clip-rule="nonzero"/></clipPath><clipPath id="9cf218858a"><path d="M 60.167969 134 L 100.667969 134 L 100.667969 173 L 60.167969 173 Z M 60.167969 134 " clip-rule="nonzero"/></clipPath><clipPath id="03baa025bb"><path d="M 61 134 L 100.667969 134 L 100.667969 159 L 61 159 Z M 61 134 " clip-rule="nonzero"/></clipPath></defs><g clip-path="url(#fab92df61d)"><path fill="#042F34"   d="M 149.464844 133.644531 L 314.507812 133.644531 L 314.507812 145 L 149.464844 145 Z M 149.464844 133.644531 " fill-opacity="1" fill-rule="nonzero"/></g><g clip-path="url(#96b6cc41e1)"><path fill="#042F34"   d="M 60.488281 229.25 L 230.496094 229.25 L 230.496094 240.605469 L 60.488281 240.605469 Z M 60.488281 229.25 " fill-opacity="1" fill-rule="nonzero"/></g><g clip-path="url(#c3e4a645e7)"><path fill="#042F34"   d="M 279.367188 229.25 L 314.496094 229.25 L 314.496094 240.605469 L 279.367188 240.605469 Z M 279.367188 229.25 " fill-opacity="1" fill-rule="nonzero"/></g><g clip-path="url(#e5c37447c4)"><path fill="#34bdb3" d="M 60.167969 227.582031 L 60.167969 134.191406 L 61.597656 134.191406 L 86.410156 158.71875 L 100.410156 172.570312 L 92.289062 172.570312 L 92.289062 172.582031 Z M 60.167969 227.582031 " fill-opacity="1" fill-rule="nonzero"/></g><g clip-path="url(#9cf218858a)"><path fill="#31b2a5" d="M 100.421875 172.582031 L 92.289062 172.582031 L 60.167969 140.917969 L 60.167969 134.191406 L 61.597656 134.191406 L 86.410156 158.71875 L 100.410156 172.570312 Z M 100.421875 172.582031 " fill-opacity="1" fill-rule="nonzero"/></g><g clip-path="url(#03baa025bb)"><path fill="#0d7682" d="M 86.410156 158.71875 L 61.597656 134.191406 L 100.667969 134.191406 Z M 86.410156 158.71875 " fill-opacity="1" fill-rule="nonzero"/></g><g fill="#042F34"   fill-opacity="1"><g transform="translate(101.571488, 207.749958)"><g><path d="M 5.875 0 L 5.875 -49 L 27.796875 -49 C 32.785156 -49 36.75 -47.804688 39.6875 -45.421875 C 42.625 -43.046875 44.09375 -39.851562 44.09375 -35.84375 C 44.09375 -33.550781 43.578125 -31.472656 42.546875 -29.609375 C 41.523438 -27.742188 40.082031 -26.273438 38.21875 -25.203125 C 40.550781 -24.171875 42.359375 -22.648438 43.640625 -20.640625 C 44.921875 -18.640625 45.5625 -16.332031 45.5625 -13.71875 C 45.5625 -10.96875 44.863281 -8.566406 43.46875 -6.515625 C 42.070312 -4.460938 40.125 -2.863281 37.625 -1.71875 C 35.125 -0.570312 32.21875 0 28.90625 0 Z M 16.875 -8.8125 L 27.234375 -8.8125 C 29.421875 -8.8125 31.117188 -9.328125 32.328125 -10.359375 C 33.546875 -11.390625 34.15625 -12.835938 34.15625 -14.703125 C 34.15625 -16.566406 33.546875 -18.007812 32.328125 -19.03125 C 31.117188 -20.0625 29.421875 -20.578125 27.234375 -20.578125 L 16.875 -20.578125 Z M 16.875 -29.046875 L 26.109375 -29.046875 C 28.253906 -29.046875 29.898438 -29.535156 31.046875 -30.515625 C 32.191406 -31.492188 32.765625 -32.875 32.765625 -34.65625 C 32.765625 -36.425781 32.191406 -37.789062 31.046875 -38.75 C 29.898438 -39.707031 28.253906 -40.1875 26.109375 -40.1875 L 16.875 -40.1875 Z M 16.875 -29.046875 "/></g></g></g><g fill="#042F34"   fill-opacity="1"><g transform="translate(158.898854, 207.749958)"><g><path d="M 1.46875 10.078125 L 1.46875 -10.5625 L 7 -10.5625 C 7.882812 -11.363281 8.570312 -12.347656 9.0625 -13.515625 C 9.550781 -14.679688 9.867188 -16.148438 10.015625 -17.921875 L 12.59375 -49 L 47.53125 -49 L 47.53125 -10.5625 L 54.8125 -10.5625 L 54.8125 10.078125 L 43.8125 10.078125 L 43.8125 0 L 12.390625 0 L 12.390625 10.078125 Z M 19.1875 -10.15625 L 36.328125 -10.15625 L 36.328125 -38.640625 L 22.890625 -38.640625 L 21.0625 -17.015625 C 20.976562 -15.703125 20.78125 -14.472656 20.46875 -13.328125 C 20.164062 -12.191406 19.738281 -11.132812 19.1875 -10.15625 Z M 19.1875 -10.15625 "/></g></g></g><g fill="#042F34"   fill-opacity="1"><g transform="translate(224.555756, 207.749958)"><g><path d="M 43.609375 10.078125 L 43.609375 0 L 5.875 0 L 5.875 -49 L 17.015625 -49 L 17.015625 -10.4375 L 36.1875 -10.4375 L 36.1875 -49 L 47.3125 -49 L 47.3125 -10.5625 L 54.53125 -10.5625 L 54.53125 10.078125 Z M 43.609375 10.078125 "/></g></g></g><g fill="#042F34"   fill-opacity="1"><g transform="translate(60.609764, 255.608508)"><g><path d="M 5.34375 -4.359375 C 5.757812 -4.273438 6.078125 -4.132812 6.296875 -3.9375 C 6.515625 -3.738281 6.671875 -3.53125 6.765625 -3.3125 C 6.859375 -3.09375 6.910156 -2.90625 6.921875 -2.75 C 6.929688 -2.59375 6.9375 -2.515625 6.9375 -2.515625 C 6.9375 -2.023438 6.851562 -1.625 6.6875 -1.3125 C 6.519531 -1.007812 6.304688 -0.769531 6.046875 -0.59375 C 5.785156 -0.414062 5.507812 -0.28125 5.21875 -0.1875 C 4.9375 -0.101562 4.675781 -0.0507812 4.4375 -0.03125 C 4.195312 -0.0078125 4.019531 0 3.90625 0 L 0.984375 0 L 0.984375 -8.75 L 3.90625 -8.75 C 3.90625 -8.75 3.972656 -8.742188 4.109375 -8.734375 C 4.253906 -8.722656 4.4375 -8.695312 4.65625 -8.65625 C 4.875 -8.625 5.101562 -8.5625 5.34375 -8.46875 C 5.59375 -8.375 5.828125 -8.234375 6.046875 -8.046875 C 6.273438 -7.867188 6.457031 -7.632812 6.59375 -7.34375 C 6.738281 -7.0625 6.8125 -6.707031 6.8125 -6.28125 C 6.8125 -5.90625 6.742188 -5.582031 6.609375 -5.3125 C 6.472656 -5.050781 6.289062 -4.84375 6.0625 -4.6875 C 5.832031 -4.539062 5.59375 -4.429688 5.34375 -4.359375 Z M 2.4375 -5.09375 L 3.90625 -5.09375 C 3.90625 -5.09375 3.976562 -5.097656 4.125 -5.109375 C 4.269531 -5.128906 4.4375 -5.171875 4.625 -5.234375 C 4.8125 -5.304688 4.976562 -5.414062 5.125 -5.5625 C 5.269531 -5.707031 5.34375 -5.914062 5.34375 -6.1875 C 5.34375 -6.476562 5.269531 -6.703125 5.125 -6.859375 C 4.976562 -7.015625 4.8125 -7.125 4.625 -7.1875 C 4.4375 -7.25 4.269531 -7.28125 4.125 -7.28125 C 3.976562 -7.289062 3.90625 -7.296875 3.90625 -7.296875 L 2.4375 -7.296875 Z M 3.90625 -1.453125 C 4.113281 -1.453125 4.335938 -1.472656 4.578125 -1.515625 C 4.816406 -1.566406 5.023438 -1.671875 5.203125 -1.828125 C 5.378906 -1.992188 5.46875 -2.234375 5.46875 -2.546875 C 5.46875 -2.785156 5.414062 -2.972656 5.3125 -3.109375 C 5.207031 -3.253906 5.078125 -3.363281 4.921875 -3.4375 C 4.765625 -3.507812 4.609375 -3.5625 4.453125 -3.59375 C 4.296875 -3.625 4.164062 -3.640625 4.0625 -3.640625 C 3.957031 -3.640625 3.90625 -3.640625 3.90625 -3.640625 L 2.4375 -3.640625 L 2.4375 -1.453125 Z M 3.90625 -1.453125 "/></g></g></g><g fill="#042F34"   fill-opacity="1"><g transform="translate(68.155016, 255.608508)"><g><path d="M 1.015625 -8.75 L 2.484375 -8.75 L 2.484375 -2.40625 L 6.84375 -8.75 L 8.34375 -8.75 L 8.34375 0 L 6.859375 0 L 6.859375 -6.46875 L 2.515625 0 L 1.015625 0 Z M 1.015625 -8.75 "/></g></g></g><g fill="#042F34"   fill-opacity="1"><g transform="translate(77.461652, 255.608508)"><g><path d="M 7.578125 -8.75 L 7.578125 0 L 6.109375 0 L 6.109375 -7.296875 L 2.46875 -7.296875 L 2.46875 0 L 1.015625 0 L 1.015625 -8.75 Z M 7.578125 -8.75 "/></g></g></g><g fill="#042F34"   fill-opacity="1"><g transform="translate(86.04375, 255.608508)"><g><path d="M 3.90625 -8.75 C 3.90625 -8.75 3.976562 -8.742188 4.125 -8.734375 C 4.269531 -8.722656 4.453125 -8.695312 4.671875 -8.65625 C 4.890625 -8.613281 5.125 -8.539062 5.375 -8.4375 C 5.625 -8.332031 5.859375 -8.1875 6.078125 -8 C 6.296875 -7.8125 6.476562 -7.566406 6.625 -7.265625 C 6.769531 -6.972656 6.84375 -6.613281 6.84375 -6.1875 C 6.84375 -5.757812 6.769531 -5.394531 6.625 -5.09375 C 6.476562 -4.800781 6.296875 -4.5625 6.078125 -4.375 C 5.859375 -4.1875 5.625 -4.039062 5.375 -3.9375 C 5.125 -3.832031 4.890625 -3.757812 4.671875 -3.71875 C 4.453125 -3.675781 4.269531 -3.648438 4.125 -3.640625 C 3.976562 -3.628906 3.90625 -3.625 3.90625 -3.625 L 2.453125 -3.625 L 2.453125 0.03125 L 0.984375 0.03125 L 0.984375 -8.75 Z M 3.90625 -5.09375 C 3.90625 -5.09375 3.976562 -5.097656 4.125 -5.109375 C 4.269531 -5.117188 4.441406 -5.15625 4.640625 -5.21875 C 4.835938 -5.289062 5.007812 -5.398438 5.15625 -5.546875 C 5.300781 -5.703125 5.375 -5.914062 5.375 -6.1875 C 5.375 -6.457031 5.300781 -6.664062 5.15625 -6.8125 C 5.007812 -6.96875 4.835938 -7.078125 4.640625 -7.140625 C 4.441406 -7.210938 4.269531 -7.253906 4.125 -7.265625 C 3.976562 -7.273438 3.90625 -7.28125 3.90625 -7.28125 L 2.453125 -7.28125 L 2.453125 -5.09375 Z M 3.90625 -5.09375 "/></g></g></g><g fill="#042F34"   fill-opacity="1"><g transform="translate(93.301675, 255.608508)"><g><path d="M 4.96875 -8.859375 C 5.675781 -8.859375 6.300781 -8.726562 6.84375 -8.46875 C 7.382812 -8.21875 7.832031 -7.878906 8.1875 -7.453125 C 8.539062 -7.035156 8.8125 -6.554688 9 -6.015625 C 9.1875 -5.484375 9.28125 -4.9375 9.28125 -4.375 C 9.28125 -3.8125 9.1875 -3.257812 9 -2.71875 C 8.820312 -2.1875 8.550781 -1.707031 8.1875 -1.28125 C 7.832031 -0.863281 7.382812 -0.523438 6.84375 -0.265625 C 6.300781 -0.015625 5.675781 0.109375 4.96875 0.109375 C 4.238281 0.109375 3.601562 -0.015625 3.0625 -0.265625 C 2.53125 -0.523438 2.082031 -0.863281 1.71875 -1.28125 C 1.351562 -1.707031 1.082031 -2.1875 0.90625 -2.71875 C 0.726562 -3.257812 0.640625 -3.8125 0.640625 -4.375 C 0.640625 -4.9375 0.726562 -5.484375 0.90625 -6.015625 C 1.082031 -6.554688 1.351562 -7.035156 1.71875 -7.453125 C 2.082031 -7.878906 2.535156 -8.21875 3.078125 -8.46875 C 3.617188 -8.726562 4.25 -8.859375 4.96875 -8.859375 Z M 4.96875 -1.296875 C 5.507812 -1.296875 5.972656 -1.40625 6.359375 -1.625 C 6.742188 -1.851562 7.050781 -2.148438 7.28125 -2.515625 C 7.507812 -2.878906 7.660156 -3.28125 7.734375 -3.71875 C 7.816406 -4.15625 7.816406 -4.585938 7.734375 -5.015625 C 7.660156 -5.453125 7.507812 -5.851562 7.28125 -6.21875 C 7.050781 -6.59375 6.742188 -6.890625 6.359375 -7.109375 C 5.972656 -7.328125 5.507812 -7.4375 4.96875 -7.4375 C 4.425781 -7.4375 3.960938 -7.328125 3.578125 -7.109375 C 3.191406 -6.890625 2.878906 -6.59375 2.640625 -6.21875 C 2.410156 -5.851562 2.253906 -5.453125 2.171875 -5.015625 C 2.097656 -4.585938 2.097656 -4.15625 2.171875 -3.71875 C 2.253906 -3.28125 2.410156 -2.878906 2.640625 -2.515625 C 2.867188 -2.148438 3.175781 -1.851562 3.5625 -1.625 C 3.957031 -1.40625 4.425781 -1.296875 4.96875 -1.296875 Z M 4.96875 -1.296875 "/></g></g></g><g fill="#042F34"   fill-opacity="1"><g transform="translate(103.270397, 255.608508)"><g><path d="M 3.90625 -5.21875 C 4.945312 -5.21875 5.710938 -4.988281 6.203125 -4.53125 C 6.691406 -4.070312 6.9375 -3.445312 6.9375 -2.65625 C 6.9375 -2.164062 6.851562 -1.757812 6.6875 -1.4375 C 6.519531 -1.125 6.304688 -0.867188 6.046875 -0.671875 C 5.785156 -0.484375 5.507812 -0.335938 5.21875 -0.234375 C 4.9375 -0.140625 4.675781 -0.078125 4.4375 -0.046875 C 4.195312 -0.015625 4.019531 0 3.90625 0 L 0.984375 0 L 0.984375 -8.75 L 6.40625 -8.75 L 6.40625 -7.34375 L 2.4375 -7.34375 L 2.4375 -5.21875 Z M 3.90625 -1.453125 C 4.113281 -1.453125 4.335938 -1.476562 4.578125 -1.53125 C 4.816406 -1.59375 5.023438 -1.707031 5.203125 -1.875 C 5.378906 -2.050781 5.46875 -2.3125 5.46875 -2.65625 C 5.46875 -2.988281 5.382812 -3.238281 5.21875 -3.40625 C 5.050781 -3.570312 4.84375 -3.679688 4.59375 -3.734375 C 4.34375 -3.785156 4.113281 -3.8125 3.90625 -3.8125 L 2.4375 -3.8125 L 2.4375 -1.453125 Z M 3.90625 -1.453125 "/></g></g></g><g fill="#042F34"   fill-opacity="1"><g transform="translate(110.815649, 255.608508)"><g><path d="M 1.75 -8.75 L 3.21875 -4.59375 L 4.765625 -8.75 L 6.3125 -8.75 L 2.90625 0 L 1.40625 0 L 2.4375 -2.71875 L 0.078125 -8.75 Z M 1.75 -8.75 "/></g></g></g><g fill="#042F34"   fill-opacity="1"><g transform="translate(117.21162, 255.608508)"><g><path d="M 5.34375 -4.359375 C 5.757812 -4.273438 6.078125 -4.132812 6.296875 -3.9375 C 6.515625 -3.738281 6.671875 -3.53125 6.765625 -3.3125 C 6.859375 -3.09375 6.910156 -2.90625 6.921875 -2.75 C 6.929688 -2.59375 6.9375 -2.515625 6.9375 -2.515625 C 6.9375 -2.023438 6.851562 -1.625 6.6875 -1.3125 C 6.519531 -1.007812 6.304688 -0.769531 6.046875 -0.59375 C 5.785156 -0.414062 5.507812 -0.28125 5.21875 -0.1875 C 4.9375 -0.101562 4.675781 -0.0507812 4.4375 -0.03125 C 4.195312 -0.0078125 4.019531 0 3.90625 0 L 0.984375 0 L 0.984375 -8.75 L 3.90625 -8.75 C 3.90625 -8.75 3.972656 -8.742188 4.109375 -8.734375 C 4.253906 -8.722656 4.4375 -8.695312 4.65625 -8.65625 C 4.875 -8.625 5.101562 -8.5625 5.34375 -8.46875 C 5.59375 -8.375 5.828125 -8.234375 6.046875 -8.046875 C 6.273438 -7.867188 6.457031 -7.632812 6.59375 -7.34375 C 6.738281 -7.0625 6.8125 -6.707031 6.8125 -6.28125 C 6.8125 -5.90625 6.742188 -5.582031 6.609375 -5.3125 C 6.472656 -5.050781 6.289062 -4.84375 6.0625 -4.6875 C 5.832031 -4.539062 5.59375 -4.429688 5.34375 -4.359375 Z M 2.4375 -5.09375 L 3.90625 -5.09375 C 3.90625 -5.09375 3.976562 -5.097656 4.125 -5.109375 C 4.269531 -5.128906 4.4375 -5.171875 4.625 -5.234375 C 4.8125 -5.304688 4.976562 -5.414062 5.125 -5.5625 C 5.269531 -5.707031 5.34375 -5.914062 5.34375 -6.1875 C 5.34375 -6.476562 5.269531 -6.703125 5.125 -6.859375 C 4.976562 -7.015625 4.8125 -7.125 4.625 -7.1875 C 4.4375 -7.25 4.269531 -7.28125 4.125 -7.28125 C 3.976562 -7.289062 3.90625 -7.296875 3.90625 -7.296875 L 2.4375 -7.296875 Z M 3.90625 -1.453125 C 4.113281 -1.453125 4.335938 -1.472656 4.578125 -1.515625 C 4.816406 -1.566406 5.023438 -1.671875 5.203125 -1.828125 C 5.378906 -1.992188 5.46875 -2.234375 5.46875 -2.546875 C 5.46875 -2.785156 5.414062 -2.972656 5.3125 -3.109375 C 5.207031 -3.253906 5.078125 -3.363281 4.921875 -3.4375 C 4.765625 -3.507812 4.609375 -3.5625 4.453125 -3.59375 C 4.296875 -3.625 4.164062 -3.640625 4.0625 -3.640625 C 3.957031 -3.640625 3.90625 -3.640625 3.90625 -3.640625 L 2.4375 -3.640625 L 2.4375 -1.453125 Z M 3.90625 -1.453125 "/></g></g></g><g fill="#042F34"   fill-opacity="1"><g transform="translate(124.75687, 255.608508)"><g><path d="M 5.03125 -1.015625 L 1.953125 -1.015625 L 1.578125 0 L 0 0 L 3.484375 -9 L 6.984375 0 L 5.40625 0 Z M 2.421875 -2.28125 L 4.546875 -2.28125 L 3.484375 -5.3125 Z M 2.421875 -2.28125 "/></g></g></g><g fill="#042F34"   fill-opacity="1"><g transform="translate(131.75246, 255.608508)"><g><path d="M 3.484375 -5.28125 L 1.578125 0 L 0 0 L 3.484375 -9 L 6.984375 0 L 5.40625 0 Z M 3.484375 -5.28125 "/></g></g></g><g fill="#042F34"   fill-opacity="1"><g transform="translate(138.748049, 255.608508)"><g><path d="M 0.984375 0 L 0.984375 -8.75 L 2.453125 -8.75 L 2.453125 -5.125 L 3.90625 -5.125 C 3.96875 -5.125 4.109375 -5.113281 4.328125 -5.09375 C 4.546875 -5.082031 4.796875 -5.035156 5.078125 -4.953125 C 5.359375 -4.878906 5.632812 -4.75 5.90625 -4.5625 C 6.1875 -4.382812 6.414062 -4.132812 6.59375 -3.8125 C 6.769531 -3.5 6.859375 -3.082031 6.859375 -2.5625 C 6.859375 -2.050781 6.765625 -1.632812 6.578125 -1.3125 C 6.390625 -0.988281 6.15625 -0.734375 5.875 -0.546875 C 5.59375 -0.367188 5.304688 -0.238281 5.015625 -0.15625 C 4.734375 -0.0820312 4.488281 -0.0351562 4.28125 -0.015625 C 4.070312 -0.00390625 3.945312 0 3.90625 0 Z M 2.453125 -3.6875 L 2.453125 -1.46875 L 3.90625 -1.46875 C 3.957031 -1.46875 4.0625 -1.472656 4.21875 -1.484375 C 4.375 -1.492188 4.539062 -1.53125 4.71875 -1.59375 C 4.894531 -1.664062 5.046875 -1.773438 5.171875 -1.921875 C 5.304688 -2.078125 5.375 -2.289062 5.375 -2.5625 C 5.375 -2.832031 5.3125 -3.046875 5.1875 -3.203125 C 5.070312 -3.359375 4.925781 -3.46875 4.75 -3.53125 C 4.582031 -3.601562 4.421875 -3.644531 4.265625 -3.65625 C 4.109375 -3.675781 3.988281 -3.6875 3.90625 -3.6875 Z M 2.453125 -3.6875 "/></g></g></g><g fill="#042F34"   fill-opacity="1"><g transform="translate(146.005972, 255.608508)"><g><path d="M 7.578125 -8.75 L 7.578125 0 L 6.109375 0 L 6.109375 -3.65625 L 2.46875 -3.65625 L 2.46875 0 L 1.015625 0 L 1.015625 -8.75 L 2.46875 -8.75 L 2.46875 -5.125 L 6.109375 -5.125 L 6.109375 -8.75 Z M 7.578125 -8.75 "/></g></g></g><g fill="#042F34"   fill-opacity="1"><g transform="translate(154.588067, 255.608508)"><g><path d="M 4.96875 -8.859375 C 5.675781 -8.859375 6.300781 -8.726562 6.84375 -8.46875 C 7.382812 -8.21875 7.832031 -7.878906 8.1875 -7.453125 C 8.539062 -7.035156 8.8125 -6.554688 9 -6.015625 C 9.1875 -5.484375 9.28125 -4.9375 9.28125 -4.375 C 9.28125 -3.8125 9.1875 -3.257812 9 -2.71875 C 8.820312 -2.1875 8.550781 -1.707031 8.1875 -1.28125 C 7.832031 -0.863281 7.382812 -0.523438 6.84375 -0.265625 C 6.300781 -0.015625 5.675781 0.109375 4.96875 0.109375 C 4.238281 0.109375 3.601562 -0.015625 3.0625 -0.265625 C 2.53125 -0.523438 2.082031 -0.863281 1.71875 -1.28125 C 1.351562 -1.707031 1.082031 -2.1875 0.90625 -2.71875 C 0.726562 -3.257812 0.640625 -3.8125 0.640625 -4.375 C 0.640625 -4.9375 0.726562 -5.484375 0.90625 -6.015625 C 1.082031 -6.554688 1.351562 -7.035156 1.71875 -7.453125 C 2.082031 -7.878906 2.535156 -8.21875 3.078125 -8.46875 C 3.617188 -8.726562 4.25 -8.859375 4.96875 -8.859375 Z M 4.96875 -1.296875 C 5.507812 -1.296875 5.972656 -1.40625 6.359375 -1.625 C 6.742188 -1.851562 7.050781 -2.148438 7.28125 -2.515625 C 7.507812 -2.878906 7.660156 -3.28125 7.734375 -3.71875 C 7.816406 -4.15625 7.816406 -4.585938 7.734375 -5.015625 C 7.660156 -5.453125 7.507812 -5.851562 7.28125 -6.21875 C 7.050781 -6.59375 6.742188 -6.890625 6.359375 -7.109375 C 5.972656 -7.328125 5.507812 -7.4375 4.96875 -7.4375 C 4.425781 -7.4375 3.960938 -7.328125 3.578125 -7.109375 C 3.191406 -6.890625 2.878906 -6.59375 2.640625 -6.21875 C 2.410156 -5.851562 2.253906 -5.453125 2.171875 -5.015625 C 2.097656 -4.585938 2.097656 -4.15625 2.171875 -3.71875 C 2.253906 -3.28125 2.410156 -2.878906 2.640625 -2.515625 C 2.867188 -2.148438 3.175781 -1.851562 3.5625 -1.625 C 3.957031 -1.40625 4.425781 -1.296875 4.96875 -1.296875 Z M 4.96875 -1.296875 "/></g></g></g><g fill="#042F34"   fill-opacity="1"><g transform="translate(164.556786, 255.608508)"><g><path d="M 4.90625 -3.734375 L 0.515625 -3.734375 L 0.515625 -5.0625 L 4.90625 -5.0625 Z M 4.90625 -3.734375 "/></g></g></g><g fill="#042F34"   fill-opacity="1"><g transform="translate(170.103291, 255.608508)"><g><path d="M 1.390625 0 L 1.390625 1.34375 L 0.03125 1.34375 L 0.03125 -1.3125 L 0.875 -1.3125 L 3.859375 -9.03125 L 6.84375 -1.3125 L 7.703125 -1.3125 L 7.703125 1.34375 L 6.359375 1.34375 L 6.359375 0 Z M 2.421875 -1.3125 L 5.3125 -1.3125 L 3.859375 -5.3125 Z M 2.421875 -1.3125 "/></g></g></g><g fill="#042F34"   fill-opacity="1"><g transform="translate(177.823429, 255.608508)"><g><path d="M 1.03125 0 L 1.03125 -8.75 L 2.484375 -8.75 L 2.484375 0 Z M 1.03125 0 "/></g></g></g><g fill="#042F34"   fill-opacity="1"><g transform="translate(181.333721, 255.608508)"><g><path d="M 5.03125 -1.015625 L 1.953125 -1.015625 L 1.578125 0 L 0 0 L 3.484375 -9 L 6.984375 0 L 5.40625 0 Z M 2.421875 -2.28125 L 4.546875 -2.28125 L 3.484375 -5.3125 Z M 2.421875 -2.28125 "/></g></g></g><g fill="#042F34"   fill-opacity="1"><g transform="translate(188.329311, 255.608508)"><g><path d="M 2.4375 0 L 0.984375 0 L 0.984375 -8.75 L 6.40625 -8.75 L 6.40625 -7.34375 L 2.4375 -7.34375 Z M 2.4375 0 "/></g></g></g><g fill="#042F34"   fill-opacity="1"><g transform="translate(195.187491, 255.608508)"><g><path d="M 7.578125 -8.75 L 7.578125 0 L 6.109375 0 L 6.109375 -3.65625 L 2.46875 -3.65625 L 2.46875 0 L 1.015625 0 L 1.015625 -8.75 L 2.46875 -8.75 L 2.46875 -5.125 L 6.109375 -5.125 L 6.109375 -8.75 Z M 7.578125 -8.75 "/></g></g></g><g fill="#042F34"   fill-opacity="1"><g transform="translate(203.769587, 255.608508)"><g><path d="M 4.96875 -8.859375 C 5.675781 -8.859375 6.300781 -8.726562 6.84375 -8.46875 C 7.382812 -8.21875 7.832031 -7.878906 8.1875 -7.453125 C 8.539062 -7.035156 8.8125 -6.554688 9 -6.015625 C 9.1875 -5.484375 9.28125 -4.9375 9.28125 -4.375 C 9.28125 -3.8125 9.1875 -3.257812 9 -2.71875 C 8.820312 -2.1875 8.550781 -1.707031 8.1875 -1.28125 C 7.832031 -0.863281 7.382812 -0.523438 6.84375 -0.265625 C 6.300781 -0.015625 5.675781 0.109375 4.96875 0.109375 C 4.238281 0.109375 3.601562 -0.015625 3.0625 -0.265625 C 2.53125 -0.523438 2.082031 -0.863281 1.71875 -1.28125 C 1.351562 -1.707031 1.082031 -2.1875 0.90625 -2.71875 C 0.726562 -3.257812 0.640625 -3.8125 0.640625 -4.375 C 0.640625 -4.9375 0.726562 -5.484375 0.90625 -6.015625 C 1.082031 -6.554688 1.351562 -7.035156 1.71875 -7.453125 C 2.082031 -7.878906 2.535156 -8.21875 3.078125 -8.46875 C 3.617188 -8.726562 4.25 -8.859375 4.96875 -8.859375 Z M 4.96875 -1.296875 C 5.507812 -1.296875 5.972656 -1.40625 6.359375 -1.625 C 6.742188 -1.851562 7.050781 -2.148438 7.28125 -2.515625 C 7.507812 -2.878906 7.660156 -3.28125 7.734375 -3.71875 C 7.816406 -4.15625 7.816406 -4.585938 7.734375 -5.015625 C 7.660156 -5.453125 7.507812 -5.851562 7.28125 -6.21875 C 7.050781 -6.59375 6.742188 -6.890625 6.359375 -7.109375 C 5.972656 -7.328125 5.507812 -7.4375 4.96875 -7.4375 C 4.425781 -7.4375 3.960938 -7.328125 3.578125 -7.109375 C 3.191406 -6.890625 2.878906 -6.59375 2.640625 -6.21875 C 2.410156 -5.851562 2.253906 -5.453125 2.171875 -5.015625 C 2.097656 -4.585938 2.097656 -4.15625 2.171875 -3.71875 C 2.253906 -3.28125 2.410156 -2.878906 2.640625 -2.515625 C 2.867188 -2.148438 3.175781 -1.851562 3.5625 -1.625 C 3.957031 -1.40625 4.425781 -1.296875 4.96875 -1.296875 Z M 4.96875 -1.296875 "/></g></g></g><g fill="#042F34"   fill-opacity="1"><g transform="translate(213.738305, 255.608508)"><g><path d="M 5.078125 -1.34375 C 5.472656 -1.34375 5.847656 -1.414062 6.203125 -1.5625 C 6.566406 -1.71875 6.878906 -1.925781 7.140625 -2.1875 L 8.15625 -1.15625 C 7.769531 -0.757812 7.3125 -0.445312 6.78125 -0.21875 C 6.25 0.0078125 5.679688 0.125 5.078125 0.125 C 4.472656 0.125 3.90625 0.0195312 3.375 -0.1875 C 2.84375 -0.394531 2.375 -0.695312 1.96875 -1.09375 C 1.570312 -1.488281 1.257812 -1.960938 1.03125 -2.515625 C 0.800781 -3.066406 0.6875 -3.6875 0.6875 -4.375 C 0.6875 -5.257812 0.875 -6.035156 1.25 -6.703125 C 1.625 -7.378906 2.140625 -7.910156 2.796875 -8.296875 C 3.460938 -8.679688 4.222656 -8.875 5.078125 -8.875 C 5.679688 -8.875 6.25 -8.757812 6.78125 -8.53125 C 7.3125 -8.300781 7.769531 -7.988281 8.15625 -7.59375 L 7.140625 -6.5625 C 6.878906 -6.832031 6.566406 -7.039062 6.203125 -7.1875 C 5.847656 -7.332031 5.472656 -7.40625 5.078125 -7.40625 C 4.472656 -7.40625 3.953125 -7.273438 3.515625 -7.015625 C 3.085938 -6.753906 2.753906 -6.394531 2.515625 -5.9375 C 2.285156 -5.488281 2.171875 -4.96875 2.171875 -4.375 C 2.171875 -3.75 2.300781 -3.207031 2.5625 -2.75 C 2.820312 -2.300781 3.171875 -1.953125 3.609375 -1.703125 C 4.054688 -1.460938 4.546875 -1.34375 5.078125 -1.34375 Z M 5.078125 -1.34375 "/></g></g></g><g fill="#042F34"   fill-opacity="1"><g transform="translate(222.420331, 255.608508)"><g><path d="M 5.375 -7.40625 L 3.53125 -7.40625 L 3.53125 0 L 2.09375 0 L 2.09375 -7.40625 L 0.25 -7.40625 L 0.25 -8.75 L 5.375 -8.75 Z M 5.375 -7.40625 "/></g></g></g><g fill="#042F34"   fill-opacity="1"><g transform="translate(228.029297, 255.608508)"><g><path d="M 1.015625 -8.75 L 2.484375 -8.75 L 2.484375 -2.40625 L 6.84375 -8.75 L 8.34375 -8.75 L 8.34375 0 L 6.859375 0 L 6.859375 -6.46875 L 2.515625 0 L 1.015625 0 Z M 1.015625 -8.75 "/></g></g></g><g fill="#042F34"   fill-opacity="1"><g transform="translate(237.33593, 255.608508)"><g><path d="M 5.46875 0 L 5.46875 -3.453125 C 5.21875 -3.296875 4.941406 -3.171875 4.640625 -3.078125 C 4.335938 -2.984375 4.015625 -2.9375 3.671875 -2.9375 C 3.097656 -2.9375 2.582031 -3.054688 2.125 -3.296875 C 1.675781 -3.535156 1.316406 -3.875 1.046875 -4.3125 C 0.785156 -4.757812 0.65625 -5.273438 0.65625 -5.859375 L 0.65625 -8.75 L 2.125 -8.75 L 2.125 -5.859375 C 2.164062 -5.347656 2.359375 -4.972656 2.703125 -4.734375 C 3.046875 -4.492188 3.441406 -4.375 3.890625 -4.375 C 4.171875 -4.375 4.453125 -4.425781 4.734375 -4.53125 C 5.015625 -4.632812 5.257812 -4.78125 5.46875 -4.96875 L 5.46875 -8.75 L 6.9375 -8.75 L 6.9375 0 Z M 5.46875 0 "/></g></g></g><g fill="#042F34"   fill-opacity="1"><g transform="translate(245.268436, 255.608508)"><g><path d="M 7.578125 -8.75 L 7.578125 0 L 6.109375 0 L 6.109375 -3.65625 L 2.46875 -3.65625 L 2.46875 0 L 1.015625 0 L 1.015625 -8.75 L 2.46875 -8.75 L 2.46875 -5.125 L 6.109375 -5.125 L 6.109375 -8.75 Z M 7.578125 -8.75 "/></g></g></g><g fill="#042F34"   fill-opacity="1"><g transform="translate(253.850543, 255.608508)"><g><path d="M 1.015625 -8.75 L 2.484375 -8.75 L 2.484375 -2.40625 L 6.84375 -8.75 L 8.34375 -8.75 L 8.34375 0 L 6.859375 0 L 6.859375 -6.46875 L 2.515625 0 L 1.015625 0 Z M 1.015625 -8.75 "/></g></g></g><g fill="#042F34"   fill-opacity="1"><g transform="translate(263.157175, 255.608508)"><g><path d="M 6.65625 -11.140625 C 6.65625 -10.679688 6.570312 -10.3125 6.40625 -10.03125 C 6.238281 -9.757812 6.015625 -9.5625 5.734375 -9.4375 C 5.460938 -9.320312 5.15625 -9.265625 4.8125 -9.265625 C 4.476562 -9.265625 4.160156 -9.320312 3.859375 -9.4375 C 3.554688 -9.5625 3.304688 -9.757812 3.109375 -10.03125 C 2.921875 -10.3125 2.828125 -10.679688 2.828125 -11.140625 L 3.96875 -11.140625 C 3.96875 -10.859375 4.046875 -10.648438 4.203125 -10.515625 C 4.359375 -10.378906 4.535156 -10.3125 4.734375 -10.3125 C 4.941406 -10.3125 5.125 -10.378906 5.28125 -10.515625 C 5.4375 -10.648438 5.519531 -10.859375 5.53125 -11.140625 Z M 1.015625 -8.75 L 2.484375 -8.75 L 2.484375 -2.40625 L 6.84375 -8.75 L 8.34375 -8.75 L 8.34375 0 L 6.859375 0 L 6.859375 -6.46875 L 2.515625 0 L 1.015625 0 Z M 1.015625 -8.75 "/></g></g></g><g fill="#042F34"   fill-opacity="1"><g transform="translate(272.501298, 255.608508)"><g/></g></g><g fill="#042F34"   fill-opacity="1"><g transform="translate(276.823571, 255.608508)"><g><path d="M 1 0 L 1 -8.75 L 2.46875 -8.75 L 2.46875 -1.4375 L 6.09375 -1.4375 L 6.09375 -8.75 L 7.5625 -8.75 L 7.5625 -1.34375 L 8.421875 -1.34375 L 8.421875 1.359375 L 7.0625 1.359375 L 7.0625 0 Z M 1 0 "/></g></g></g><g fill="#042F34"   fill-opacity="1"><g transform="translate(285.580567, 255.608508)"><g><path d="M 2.453125 -7.28125 L 2.453125 -5.09375 L 6.09375 -5.09375 L 6.09375 -3.65625 L 2.453125 -3.65625 L 2.453125 -1.46875 L 6.828125 -1.46875 L 6.828125 0 L 0.984375 0 L 0.984375 -8.75 L 6.828125 -8.75 L 6.828125 -7.28125 Z M 2.453125 -7.28125 "/></g></g></g><g fill="#042F34"   fill-opacity="1"><g transform="translate(292.938431, 255.608508)"><g><path d="M 7.578125 -8.75 L 7.578125 0 L 6.109375 0 L 6.109375 -3.65625 L 2.46875 -3.65625 L 2.46875 0 L 1.015625 0 L 1.015625 -8.75 L 2.46875 -8.75 L 2.46875 -5.125 L 6.109375 -5.125 L 6.109375 -8.75 Z M 7.578125 -8.75 "/></g></g></g><g fill="#042F34"   fill-opacity="1"><g transform="translate(301.520538, 255.608508)"><g><path d="M 5.375 -7.40625 L 3.53125 -7.40625 L 3.53125 0 L 2.09375 0 L 2.09375 -7.40625 L 0.25 -7.40625 L 0.25 -8.75 L 5.375 -8.75 Z M 5.375 -7.40625 "/></g></g></g><g fill="#042F34"   fill-opacity="1"><g transform="translate(307.129516, 255.608508)"><g><path d="M 3.90625 -8.75 C 3.90625 -8.75 3.976562 -8.742188 4.125 -8.734375 C 4.269531 -8.722656 4.453125 -8.695312 4.671875 -8.65625 C 4.890625 -8.613281 5.125 -8.539062 5.375 -8.4375 C 5.625 -8.332031 5.859375 -8.1875 6.078125 -8 C 6.296875 -7.8125 6.476562 -7.566406 6.625 -7.265625 C 6.769531 -6.972656 6.84375 -6.613281 6.84375 -6.1875 C 6.84375 -5.757812 6.769531 -5.394531 6.625 -5.09375 C 6.476562 -4.800781 6.296875 -4.5625 6.078125 -4.375 C 5.859375 -4.1875 5.625 -4.039062 5.375 -3.9375 C 5.125 -3.832031 4.890625 -3.757812 4.671875 -3.71875 C 4.453125 -3.675781 4.269531 -3.648438 4.125 -3.640625 C 3.976562 -3.628906 3.90625 -3.625 3.90625 -3.625 L 2.453125 -3.625 L 2.453125 0.03125 L 0.984375 0.03125 L 0.984375 -8.75 Z M 3.90625 -5.09375 C 3.90625 -5.09375 3.976562 -5.097656 4.125 -5.109375 C 4.269531 -5.117188 4.441406 -5.15625 4.640625 -5.21875 C 4.835938 -5.289062 5.007812 -5.398438 5.15625 -5.546875 C 5.300781 -5.703125 5.375 -5.914062 5.375 -6.1875 C 5.375 -6.457031 5.300781 -6.664062 5.15625 -6.8125 C 5.007812 -6.96875 4.835938 -7.078125 4.640625 -7.140625 C 4.441406 -7.210938 4.269531 -7.253906 4.125 -7.265625 C 3.976562 -7.273438 3.90625 -7.28125 3.90625 -7.28125 L 2.453125 -7.28125 L 2.453125 -5.09375 Z M 3.90625 -5.09375 "/></g></g></g></svg>